<?xml version="1.0" encoding="utf-8"?>
<!-- Generator: Adobe Illustrator 24.1.1, SVG Export Plug-In . SVG Version: 6.00 Build 0)  -->
<svg version="1.1" xmlns="http://www.w3.org/2000/svg" xmlns:xlink="http://www.w3.org/1999/xlink" x="0px" y="0px"
	 viewBox="0 0 750 897.38" style="enable-background:new 0 0 750 897.38;" xml:space="preserve">
<style type="text/css">
	.st0{fill:#959CE8;}
	.st1{fill:#5757CE;}
	.st2{fill:#FFFFFF;}
	.st3{fill:#15161C;}
	.st4{fill:url(#SVGID_1_);}
	.st5{fill:url(#SVGID_2_);}
	.st6{fill:url(#SVGID_3_);}
	.st7{fill:url(#SVGID_4_);}
	.st8{fill:url(#SVGID_5_);}
</style>
<g id="Capa_1">
	<path class="st0" d="M641.8,443.84c84.84-83.57,132.01-169.11,95.99-226.75c-18.64-29.84-65.24-59.63-181.41-32.17
		c-23.72,5.61-48.77,13.31-74.66,22.8V59.45h32.42V0h-32.42H268.27h-32.65v59.45h32.65v148.27c-25.89-9.49-50.94-17.19-74.66-22.8
		C77.46,157.45,30.85,187.27,12.2,217.1c-36.01,57.64,11.15,143.17,95.99,226.75c-16.77,16.58-32,33.15-45.39,49.5
		C-12.8,585.71-6.44,640.66,12.2,670.5c18.78,30.06,54.28,43.12,99.89,43.12c44.48,0,98.62-12.53,156.17-33.73v110.76
		c0,58.85,47.88,106.73,106.73,106.73s106.73-47.88,106.73-106.73V679.89c57.55,21.2,111.68,33.73,156.17,33.73
		c45.6,0,81.12-13.06,99.89-43.12c18.64-29.84,25-84.79-50.6-177.15C673.8,476.99,658.57,460.42,641.8,443.84z M570.07,242.78
		c27.21-6.44,49.89-9.13,67.91-9.13c27.29,0,43.91,6.19,49.39,14.95c9.1,14.56-1.66,53.59-46.19,107.99
		c-12.66,15.47-27.2,31.19-43.26,46.95c-34.74-29.84-73.94-59.14-116.2-86.67v-45.56C512.68,258.97,542.41,249.32,570.07,242.78z
		 M268.27,498.98c-25.61-17.96-49.69-36.47-71.85-55.18c22.15-18.71,46.24-37.21,71.85-55.17V498.98z M327.72,537.97V349.64
		c15.76-9.67,31.55-18.84,47.28-27.49c15.73,8.64,31.52,17.82,47.28,27.49v188.33c-15.76,9.67-31.55,18.84-47.28,27.48
		C359.27,556.81,343.48,547.63,327.72,537.97z M481.73,388.62c25.61,17.96,49.69,36.47,71.85,55.17
		c-22.15,18.71-46.24,37.21-71.85,55.18V388.62z M327.72,59.45h94.55v172.62c-15.62,7.04-31.4,14.61-47.28,22.74
		c-15.88-8.14-31.66-15.7-47.28-22.74V59.45z M108.81,356.59c-44.53-54.4-55.29-93.43-46.19-107.99c9.09-14.56,48.89-22,117.3-5.82
		c27.66,6.54,57.4,16.18,88.34,28.53v45.56c-42.25,27.53-81.45,56.83-116.2,86.67C136.01,387.78,121.48,372.06,108.81,356.59z
		 M179.93,644.81c-68.42,16.17-108.21,8.73-117.3-5.82c-9.1-14.56,1.66-53.59,46.19-107.99c12.67-15.47,27.2-31.2,43.27-46.96
		c35.37,30.32,74.83,59.71,116.19,86.68v45.57C237.32,628.63,207.59,638.27,179.93,644.81z M422.28,790.64
		c0,26.07-21.21,47.28-47.28,47.28s-47.28-21.21-47.28-47.28V655.48c15.71-7.09,31.49-14.71,47.28-22.8
		c15.78,8.09,31.57,15.71,47.28,22.8V790.64z M687.38,639c-9.1,14.56-48.91,21.99-117.3,5.82c-27.66-6.54-57.4-16.18-88.34-28.52
		v-45.57c41.36-26.97,80.82-56.36,116.19-86.68c16.07,15.76,30.6,31.49,43.27,46.96C685.72,585.41,696.47,624.44,687.38,639z"/>
</g>
<g id="Capa_2">
</g>
</svg>
