<?xml version="1.0" encoding="utf-8"?>
<!-- Generator: Adobe Illustrator 24.1.1, SVG Export Plug-In . SVG Version: 6.00 Build 0)  -->
<svg version="1.1" xmlns="http://www.w3.org/2000/svg" xmlns:xlink="http://www.w3.org/1999/xlink" x="0px" y="0px"
	 viewBox="0 0 2159.97 450" style="enable-background:new 0 0 2159.97 450;" xml:space="preserve">
<style type="text/css">
	.st0{fill:#959CE8;}
	.st1{fill:#5757CE;}
	.st2{fill:#FFFFFF;}
	.st3{fill:#15161C;}
	.st4{fill:url(#SVGID_1_);}
	.st5{fill:url(#SVGID_2_);}
	.st6{fill:url(#SVGID_3_);}
	.st7{fill:url(#SVGID_4_);}
	.st8{fill:url(#SVGID_5_);}
</style>
<g id="Capa_1">
	<path class="st2" d="M321.84,222.57c42.55-41.91,66.2-84.8,48.14-113.7c-9.35-14.96-32.71-29.9-90.97-16.13
		c-11.89,2.81-24.46,6.67-37.44,11.43V29.81h16.26V0h-16.26H134.53h-16.37v29.81h16.37v74.35c-12.98-4.76-25.55-8.62-37.44-11.43
		c-58.25-13.78-81.62,1.17-90.97,16.13c-18.06,28.9,5.59,71.8,48.14,113.7c-8.41,8.31-16.05,16.62-22.76,24.82
		c-37.91,46.31-34.72,73.87-25.38,88.83c9.42,15.07,27.22,21.62,50.09,21.62c22.31,0,49.45-6.28,78.31-16.92v55.54
		c0,29.51,24.01,53.52,53.52,53.52s53.52-24.01,53.52-53.52v-55.54c28.86,10.63,56.01,16.91,78.31,16.91
		c22.87,0,40.68-6.55,50.09-21.62c9.35-14.96,12.54-42.52-25.38-88.83C337.89,239.19,330.25,230.88,321.84,222.57z M285.87,121.75
		c13.65-3.23,25.02-4.58,34.06-4.58c13.69,0,22.02,3.1,24.77,7.5c4.56,7.3-0.83,26.87-23.16,54.15
		c-6.35,7.76-13.64,15.64-21.69,23.55c-17.42-14.96-37.08-29.66-58.27-43.46v-22.85C257.09,129.86,272,125.03,285.87,121.75z
		 M134.53,250.22c-12.84-9.01-24.92-18.29-36.03-27.67c11.11-9.38,23.19-18.66,36.03-27.67V250.22z M164.34,269.77v-94.44
		c7.9-4.85,15.82-9.45,23.71-13.78c7.89,4.33,15.8,8.94,23.71,13.78v94.44c-7.9,4.85-15.82,9.45-23.71,13.78
		C180.16,279.22,172.24,274.62,164.34,269.77z M241.57,194.88c12.84,9.01,24.92,18.29,36.03,27.67
		c-11.11,9.38-23.19,18.66-36.03,27.67V194.88z M164.34,29.81h47.41v86.56c-7.83,3.53-15.74,7.32-23.71,11.41
		c-7.96-4.08-15.88-7.88-23.71-11.41V29.81z M54.57,178.82c-22.33-27.28-27.72-46.85-23.16-54.15c4.56-7.3,24.52-11.03,58.82-2.92
		c13.87,3.28,28.78,8.11,44.3,14.3v22.85c-21.19,13.81-40.84,28.5-58.27,43.46C68.2,194.46,60.92,186.58,54.57,178.82z
		 M90.23,323.35c-34.31,8.11-54.26,4.38-58.82-2.92c-4.56-7.3,0.83-26.87,23.16-54.15c6.35-7.76,13.64-15.65,21.7-23.55
		c17.74,15.2,37.52,29.94,58.26,43.47v22.85C119.01,315.24,104.1,320.07,90.23,323.35z M211.76,396.48
		c0,13.07-10.63,23.71-23.71,23.71s-23.71-10.64-23.71-23.71V328.7c7.88-3.56,15.79-7.38,23.71-11.43
		c7.91,4.06,15.83,7.88,23.71,11.43V396.48z M344.69,320.43c-4.56,7.3-24.52,11.03-58.82,2.92c-13.87-3.28-28.78-8.11-44.3-14.3
		V286.2c20.74-13.52,40.53-28.26,58.26-43.47c8.06,7.9,15.34,15.79,21.7,23.55C343.86,293.56,349.25,313.13,344.69,320.43z"/>
	<g>
		<path class="st2" d="M584.58,49.51l-7.03,10.08c-10.47-6.56-21.17-9.84-32.1-9.84c-15,0-26.79,6.17-35.38,18.51
			c-7.97,11.25-11.95,26.24-11.95,44.99c0,19.53,5.15,34.76,15.46,45.69c8.75,9.53,19.99,14.29,33.74,14.29
			c11.25,0,21.94-3.67,32.1-11.01l7.03,10.54c-12.18,10.62-26.01,15.93-41.47,15.93c-21.4,0-38.19-8.28-50.37-24.84
			c-10-13.59-15-30.46-15-50.61c0-22.49,6.09-41.39,18.28-56.7c11.56-14.53,26.32-21.79,44.28-21.79
			C558.11,34.75,572.24,39.67,584.58,49.51z"/>
		<path class="st2" d="M705.95,185.88h-15.46v-62.32c0-22.18-9.84-33.27-29.52-33.27c-5.31,0-10.78,1.37-16.4,4.1
			c-5.62,2.74-9.76,6.06-12.42,9.96v81.53h-15.7V42.95l15.7-8.2v56c9.68-9.37,20.93-14.06,33.74-14.06
			c26.71,0,40.06,15.23,40.06,45.69V185.88z"/>
		<path class="st2" d="M827.78,138.08h-75.91c0.62,11.41,4.57,20.54,11.83,27.41c7.26,6.88,16.67,10.31,28.23,10.31
			c9.68,0,19.13-2.89,28.35-8.67l5.39,9.37c-10.31,8.12-22.73,12.18-37.25,12.18c-16.87,0-30.3-5.54-40.3-16.64
			c-9.22-9.99-13.82-22.96-13.82-38.89c0-16.55,4.92-30.38,14.76-41.47c8.9-9.99,19.92-15,33.04-15c15.78,0,27.8,6.41,36.08,19.21
			c6.4,10,9.61,22.34,9.61,37.02V138.08z M751.63,125.43h59.98c-0.47-11.4-3.24-20.3-8.32-26.71c-5.08-6.4-12.07-9.61-20.97-9.61
			c-8.43,0-15.5,3.36-21.2,10.08C755.42,105.9,752.26,114.65,751.63,125.43z"/>
		<path class="st2" d="M1016.39,185.88h-15.7v-60.92c0-23.11-9.69-34.67-29.05-34.67c-10.47,0-20.15,4.53-29.05,13.59
			c1.56,5.47,2.34,11.56,2.34,18.27v63.73h-15.46v-61.86c0-22.49-9.45-33.74-28.35-33.74c-5,0-10.19,1.37-15.58,4.1
			c-5.39,2.74-9.57,6.13-12.53,10.19v81.3h-15.7V79.51h13.12l1.41,11.01h0.7c9.84-9.22,21.16-13.82,33.97-13.82
			c15.31,0,26.01,5.7,32.1,17.1c10.31-11.4,23.2-17.1,38.66-17.1c12.81,0,22.65,4.14,29.52,12.42c6.4,7.81,9.61,18.82,9.61,33.03
			V185.88z"/>
		<path class="st2" d="M1050.59,44.83c0-2.65,1.01-5,3.05-7.03c2.03-2.03,4.45-3.05,7.26-3.05s5.23,1.02,7.26,3.05
			c2.03,2.03,3.05,4.38,3.05,7.03c0,2.97-1.02,5.43-3.05,7.38c-2.03,1.96-4.45,2.93-7.26,2.93c-2.97,0-5.43-0.97-7.38-2.93
			C1051.57,50.26,1050.59,47.8,1050.59,44.83z M1068.4,79.51v106.37h-15.46V79.51H1068.4z"/>
		<path class="st2" d="M1186.48,87.94l-5.15,8.9c-7.97-5-16.63-7.5-26.01-7.5c-12.81,0-22.81,4.69-29.99,14.06
			c-6.25,8.12-9.37,18.27-9.37,30.46c0,12.97,3.98,23.35,11.95,31.16c7.34,7.19,16.95,10.78,28.82,10.78
			c9.99,0,18.82-2.89,26.48-8.67l5.15,9.37c-8.75,8.12-20.46,12.18-35.14,12.18c-17.18,0-30.85-5.78-41-17.34
			c-8.75-10.15-13.12-22.88-13.12-38.19c0-17.18,5.7-31.24,17.1-42.17c9.84-9.53,21.71-14.29,35.61-14.29
			C1165.4,76.69,1176.95,80.44,1186.48,87.94z"/>
		<path class="st2" d="M1294.49,185.88h-11.72l-2.34-11.48c-9.53,9.53-21.4,14.29-35.61,14.29c-10.78,0-19.37-3.01-25.77-9.02
			c-6.41-6.01-9.61-14.02-9.61-24.01c0-24.37,17.81-36.55,53.42-36.55h16.17v-1.41c0-18.59-9.06-27.88-27.18-27.88
			c-10.31,0-20.23,3.44-29.76,10.31l-5.15-8.67c10.78-9.84,23.9-14.76,39.36-14.76c12.34,0,21.79,3.83,28.35,11.48
			c6.56,7.65,9.84,18.67,9.84,33.03V185.88z M1279.03,130.58h-14.29c-25.62,0-38.42,7.89-38.42,23.66c0,6.72,1.99,11.99,5.97,15.81
			c3.98,3.83,9.57,5.74,16.75,5.74c6.25,0,12.26-1.56,18.04-4.69c5.78-3.12,9.76-7.03,11.95-11.72V130.58z"/>
		<path class="st2" d="M1346.27,34.75v151.12h-15.7V43.19L1346.27,34.75z"/>
		<path class="st2" d="M1432.73,173.69l7.5-10.54c11.4,6.56,23.51,9.84,36.32,9.84c9.84,0,17.57-2.3,23.19-6.91
			c5.62-4.61,8.43-11.13,8.43-19.56c0-14.37-9.45-24.84-28.35-31.39c-16.09-5.47-27.73-11.56-34.91-18.28
			c-7.19-6.71-10.78-14.91-10.78-24.6c0-11.56,4.53-20.85,13.59-27.88c8.28-6.4,19.13-9.61,32.57-9.61
			c14.68,0,28.03,4.06,40.06,12.18l-7.73,10.54c-9.69-5.15-20.07-7.73-31.16-7.73c-9.06,0-16.25,1.96-21.56,5.86
			c-5.31,3.91-7.97,9.22-7.97,15.93c0,10.47,8.12,18.74,24.37,24.84c18.43,7.03,31.35,14.25,38.78,21.67
			c7.42,7.42,11.13,17.07,11.13,28.94c0,13.59-5.24,24.29-15.7,32.1c-8.59,6.41-19.06,9.61-31.4,9.61
			C1463.65,188.69,1448.19,183.69,1432.73,173.69z"/>
		<path class="st2" d="M1637.97,87.94l-5.15,8.9c-7.97-5-16.64-7.5-26.01-7.5c-12.81,0-22.81,4.69-29.99,14.06
			c-6.25,8.12-9.37,18.27-9.37,30.46c0,12.97,3.98,23.35,11.95,31.16c7.34,7.19,16.95,10.78,28.82,10.78
			c9.99,0,18.82-2.89,26.47-8.67l5.15,9.37c-8.75,8.12-20.46,12.18-35.14,12.18c-17.19,0-30.85-5.78-41-17.34
			c-8.75-10.15-13.12-22.88-13.12-38.19c0-17.18,5.7-31.24,17.1-42.17c9.84-9.53,21.71-14.29,35.61-14.29
			C1616.88,76.69,1628.44,80.44,1637.97,87.94z"/>
		<path class="st2" d="M1666.79,44.83c0-2.65,1.01-5,3.05-7.03c2.03-2.03,4.45-3.05,7.26-3.05s5.23,1.02,7.26,3.05
			c2.03,2.03,3.05,4.38,3.05,7.03c0,2.97-1.02,5.43-3.05,7.38c-2.03,1.96-4.45,2.93-7.26,2.93c-2.97,0-5.43-0.97-7.38-2.93
			C1667.76,50.26,1666.79,47.8,1666.79,44.83z M1684.59,79.51v106.37h-15.46V79.51H1684.59z"/>
		<path class="st2" d="M1808.77,138.08h-75.91c0.62,11.41,4.57,20.54,11.83,27.41c7.26,6.88,16.67,10.31,28.23,10.31
			c9.68,0,19.13-2.89,28.35-8.67l5.39,9.37c-10.31,8.12-22.73,12.18-37.25,12.18c-16.87,0-30.3-5.54-40.3-16.64
			c-9.22-9.99-13.82-22.96-13.82-38.89c0-16.55,4.92-30.38,14.76-41.47c8.9-9.99,19.92-15,33.04-15c15.78,0,27.8,6.41,36.08,19.21
			c6.4,10,9.61,22.34,9.61,37.02V138.08z M1732.62,125.43h59.98c-0.47-11.4-3.24-20.3-8.32-26.71c-5.08-6.4-12.07-9.61-20.97-9.61
			c-8.43,0-15.5,3.36-21.2,10.08C1736.41,105.9,1733.24,114.65,1732.62,125.43z"/>
		<path class="st2" d="M1927.79,185.88h-15.46v-62.32c0-22.18-9.69-33.27-29.05-33.27c-5.62,0-11.17,1.33-16.64,3.98
			c-5.47,2.66-9.69,6.01-12.65,10.08v81.53h-15.7V79.51h13.12l1.41,11.25h0.7c9.21-9.37,20.77-14.06,34.68-14.06
			c26.39,0,39.6,15.23,39.6,45.69V185.88z"/>
		<path class="st2" d="M2043.53,87.94l-5.15,8.9c-7.97-5-16.64-7.5-26.01-7.5c-12.81,0-22.81,4.69-29.99,14.06
			c-6.25,8.12-9.37,18.27-9.37,30.46c0,12.97,3.98,23.35,11.95,31.16c7.34,7.19,16.95,10.78,28.82,10.78
			c9.99,0,18.82-2.89,26.47-8.67l5.15,9.37c-8.75,8.12-20.46,12.18-35.14,12.18c-17.19,0-30.85-5.78-41-17.34
			c-8.75-10.15-13.12-22.88-13.12-38.19c0-17.18,5.7-31.24,17.1-42.17c9.84-9.53,21.71-14.29,35.61-14.29
			C2022.44,76.69,2034,80.44,2043.53,87.94z"/>
		<path class="st2" d="M2159.97,138.08h-75.91c0.62,11.41,4.57,20.54,11.83,27.41c7.26,6.88,16.67,10.31,28.23,10.31
			c9.68,0,19.13-2.89,28.35-8.67l5.39,9.37c-10.31,8.12-22.73,12.18-37.25,12.18c-16.87,0-30.3-5.54-40.3-16.64
			c-9.22-9.99-13.82-22.96-13.82-38.89c0-16.55,4.92-30.38,14.76-41.47c8.9-9.99,19.92-15,33.04-15c15.78,0,27.8,6.41,36.08,19.21
			c6.4,10,9.61,22.34,9.61,37.02V138.08z M2083.83,125.43h59.98c-0.47-11.4-3.24-20.3-8.32-26.71c-5.08-6.4-12.07-9.61-20.97-9.61
			c-8.44,0-15.5,3.36-21.2,10.08C2087.61,105.9,2084.45,114.65,2083.83,125.43z"/>
		<path class="st2" d="M477.74,306.06h15.23V290.6c0-9.21,2.26-16.4,6.79-21.56c4.53-5.15,10.93-7.73,19.21-7.73
			c8.43,0,16.48,2.66,24.13,7.97l-5.62,8.67c-5.15-2.65-10.23-3.98-15.23-3.98c-9.22,0-13.82,5.78-13.82,17.34v14.76h26.71v12.65
			h-26.71v93.72h-15.46v-93.72h-15.23V306.06z"/>
		<path class="st2" d="M655.58,359.48c0,16.87-5.31,30.69-15.93,41.47c-9.53,9.53-21.24,14.29-35.14,14.29
			c-16.09,0-29.05-6.09-38.89-18.28c-8.28-10.31-12.42-22.8-12.42-37.49c0-17.18,5.15-31.08,15.46-41.7
			c9.37-9.68,21.32-14.53,35.85-14.53c16.4,0,29.44,6.17,39.13,18.51C651.59,332.07,655.58,344.65,655.58,359.48z M570.06,359.48
			c0,13.59,3.51,24.37,10.54,32.33c6.25,7.03,14.13,10.54,23.66,10.54c10.31,0,18.63-3.94,24.95-11.83
			c6.33-7.89,9.49-18.23,9.49-31.04c0-13.43-3.44-24.21-10.31-32.33c-6.25-7.5-14.22-11.25-23.9-11.25
			c-10.31,0-18.63,4.02-24.95,12.07C573.22,336.02,570.06,346.52,570.06,359.48z"/>
		<path class="st2" d="M754.45,315.2l-12.89,8.9c-5.31-4.69-11.01-7.03-17.1-7.03c-8.9,0-16.79,4.61-23.66,13.82v81.53h-15.7V306.06
			h13.36l1.41,11.25h0.47c9.21-9.37,18.66-14.06,28.35-14.06C740.08,303.25,748.67,307.24,754.45,315.2z"/>
		<path class="st2" d="M826.84,400.25l7.5-10.54c11.4,6.56,23.51,9.84,36.32,9.84c9.84,0,17.57-2.3,23.2-6.91
			c5.62-4.61,8.43-11.13,8.43-19.56c0-14.37-9.45-24.84-28.35-31.39c-16.09-5.47-27.73-11.56-34.91-18.28
			c-7.19-6.71-10.78-14.91-10.78-24.6c0-11.56,4.53-20.85,13.59-27.88c8.28-6.4,19.13-9.61,32.57-9.61
			c14.68,0,28.04,4.06,40.07,12.18l-7.73,10.54c-9.69-5.15-20.07-7.73-31.16-7.73c-9.06,0-16.25,1.96-21.56,5.86
			c-5.31,3.91-7.97,9.22-7.97,15.93c0,10.47,8.12,18.74,24.37,24.84c18.43,7.03,31.36,14.25,38.78,21.67
			c7.42,7.42,11.13,17.07,11.13,28.94c0,13.59-5.23,24.29-15.7,32.1c-8.59,6.41-19.06,9.61-31.4,9.61
			C857.77,415.25,842.31,410.25,826.84,400.25z"/>
		<path class="st2" d="M975.15,318.95l-0.23,66.54c0,11.4,4.61,17.1,13.82,17.1c5.15,0,10.23-1.32,15.23-3.98l5.62,8.67
			c-7.66,5.31-15.7,7.97-24.13,7.97c-8.28,0-14.68-2.58-19.21-7.73c-4.53-5.15-6.79-12.34-6.79-21.56v-67.01h-16.17v-12.89h16.4
			v-23.2l15.46-7.97v31.16h32.57v12.89H975.15z"/>
		<path class="st2" d="M1123.46,306.06v106.37h-12.18l-1.41-12.18l-0.7,0.23c-9.53,9.84-21.09,14.76-34.68,14.76
			c-11.4,0-20.38-4.02-26.94-12.07c-6.56-8.04-9.84-19.17-9.84-33.39v-63.73h15.7v60.92c0,22.96,8.59,34.44,25.77,34.44
			c5.31,0,10.66-1.32,16.05-3.98c5.39-2.66,9.64-6.09,12.77-10.31v-81.07H1123.46z"/>
		<path class="st2" d="M1236.62,412.43l-2.58-11.25c-7.5,9.37-18.36,14.06-32.57,14.06c-15.46,0-27.73-5.78-36.78-17.34
			c-7.81-9.99-11.71-22.41-11.71-37.25c0-18.74,5.47-33.42,16.4-44.05c9.06-8.9,20.23-13.36,33.5-13.36
			c12.49,0,22.49,4.14,29.99,12.42v-45.46l15.46-8.67v150.89H1236.62z M1232.87,384.08v-50.84c-2.03-4.84-5.7-8.94-11.01-12.3
			c-5.31-3.36-10.94-5.04-16.87-5.04c-10.31,0-18.74,4.02-25.3,12.07c-6.56,8.05-9.84,18.39-9.84,31.04
			c0,14.37,3.59,25.54,10.78,33.51c6.25,6.56,14.06,9.84,23.43,9.84c6.25,0,11.99-1.68,17.22-5.04
			C1226.51,393.97,1230.37,389.55,1232.87,384.08z"/>
		<path class="st2" d="M1371.34,364.64h-75.91c0.62,11.41,4.57,20.54,11.83,27.41c7.26,6.88,16.67,10.31,28.23,10.31
			c9.68,0,19.13-2.89,28.35-8.67l5.39,9.37c-10.31,8.12-22.73,12.18-37.25,12.18c-16.87,0-30.3-5.54-40.3-16.64
			c-9.22-9.99-13.82-22.96-13.82-38.89c0-16.55,4.92-30.38,14.76-41.47c8.9-9.99,19.92-15,33.04-15c15.78,0,27.8,6.41,36.08,19.21
			c6.4,10,9.61,22.34,9.61,37.02V364.64z M1295.19,351.98h59.98c-0.47-11.4-3.24-20.3-8.32-26.71c-5.08-6.4-12.07-9.61-20.97-9.61
			c-8.43,0-15.5,3.36-21.2,10.08C1298.98,332.46,1295.82,341.21,1295.19,351.98z"/>
		<path class="st2" d="M1490.36,412.43h-15.46v-62.32c0-22.18-9.69-33.27-29.05-33.27c-5.62,0-11.17,1.33-16.64,3.98
			c-5.47,2.66-9.69,6.01-12.65,10.08v81.53h-15.7V306.06h13.12l1.41,11.25h0.7c9.21-9.37,20.77-14.06,34.68-14.06
			c26.39,0,39.6,15.23,39.6,45.69V412.43z"/>
		<path class="st2" d="M1546.83,318.95l-0.23,66.54c0,11.4,4.61,17.1,13.82,17.1c5.15,0,10.23-1.32,15.23-3.98l5.62,8.67
			c-7.65,5.31-15.7,7.97-24.13,7.97c-8.28,0-14.68-2.58-19.21-7.73c-4.53-5.15-6.79-12.34-6.79-21.56v-67.01h-16.17v-12.89h16.4
			v-23.2l15.46-7.97v31.16h32.57v12.89H1546.83z"/>
		<path class="st2" d="M1665.14,322c-7.81-4.06-16.32-6.09-25.54-6.09c-6.25,0-11.13,1.37-14.64,4.1
			c-3.51,2.74-5.27,6.44-5.27,11.13c0,5,1.6,8.87,4.8,11.6c3.2,2.73,9.33,5.43,18.39,8.08c12.81,3.91,21.71,8.28,26.71,13.12
			c5,4.85,7.5,11.64,7.5,20.38c0,9.22-3.48,16.68-10.43,22.37c-6.95,5.7-15.9,8.55-26.83,8.55c-14.37,0-26.87-3.9-37.49-11.72
			c0.47-0.78,1.25-2.11,2.34-3.98c1.09-2.03,2.03-3.59,2.81-4.69c9.06,5,18.82,7.5,29.29,7.5c16.4,0,24.6-6.17,24.6-18.51
			c0-5-1.76-8.9-5.27-11.72s-10.04-5.46-19.56-7.97c-22.18-6.25-33.27-17.1-33.27-32.57c0-8.28,3.24-15.07,9.72-20.38
			c6.48-5.31,14.8-7.97,24.95-7.97c12.03,0,22.8,3.36,32.33,10.08L1665.14,322z"/>
	</g>
</g>
<g id="Capa_2">
</g>
</svg>
