<?xml version="1.0" encoding="utf-8"?>
<!-- Generator: Adobe Illustrator 24.1.1, SVG Export Plug-In . SVG Version: 6.00 Build 0)  -->
<svg version="1.1" xmlns="http://www.w3.org/2000/svg" xmlns:xlink="http://www.w3.org/1999/xlink" x="0px" y="0px"
	 viewBox="0 0 946.68 702.08" style="enable-background:new 0 0 946.68 702.08;" xml:space="preserve">
<style type="text/css">
	.st0{fill:#959CE8;}
	.st1{fill:#5757CE;}
	.st2{fill:#FFFFFF;}
	.st3{fill:#15161C;}
	.st4{fill:url(#SVGID_1_);}
	.st5{fill:url(#SVGID_2_);}
	.st6{fill:url(#SVGID_3_);}
	.st7{fill:url(#SVGID_4_);}
	.st8{fill:url(#SVGID_5_);}
</style>
<g id="Capa_1">
	<g>
		<path class="st3" d="M601.22,212.73c40.66-40.05,63.27-81.05,46.01-108.68c-8.93-14.3-31.27-28.58-86.95-15.42
			c-11.37,2.69-23.37,6.38-35.78,10.93V28.5h15.54V0H524.5H422.19h-15.65v28.5h15.65v71.06c-12.41-4.55-24.42-8.24-35.78-10.93
			c-55.67-13.17-78.01,1.12-86.95,15.42c-17.26,27.63,5.34,68.62,46.01,108.68c-8.04,7.94-15.34,15.89-21.75,23.73
			c-36.24,44.27-33.19,70.6-24.25,84.91c9,14.41,26.02,20.66,47.88,20.66c21.32,0,47.27-6.01,74.85-16.17v53.08
			c0,28.21,22.95,51.16,51.15,51.16s51.15-22.95,51.15-51.16v-53.08c27.58,10.16,53.53,16.17,74.85,16.17
			c21.86,0,38.88-6.26,47.88-20.66c8.94-14.3,11.98-40.64-24.25-84.91C616.55,228.61,609.25,220.67,601.22,212.73z M566.84,116.36
			c13.04-3.09,23.91-4.38,32.55-4.38c13.08,0,21.05,2.97,23.67,7.17c4.36,6.98-0.8,25.69-22.14,51.76
			c-6.07,7.42-13.03,14.95-20.73,22.5c-16.65-14.3-35.44-28.35-55.69-41.54v-21.84C539.33,124.12,553.58,119.5,566.84,116.36z
			 M422.19,239.15c-12.27-8.61-23.82-17.48-34.44-26.45c10.62-8.97,22.16-17.83,34.44-26.44V239.15z M450.68,257.84v-90.26
			c7.55-4.63,15.12-9.03,22.66-13.17c7.54,4.14,15.11,8.54,22.66,13.17v90.26c-7.55,4.63-15.12,9.03-22.66,13.17
			C465.8,266.87,458.24,262.47,450.68,257.84z M524.5,186.26c12.27,8.61,23.82,17.48,34.44,26.44
			c-10.62,8.97-22.16,17.84-34.44,26.45V186.26z M450.68,28.5H496v82.73c-7.49,3.37-15.05,7-22.66,10.9
			c-7.61-3.9-15.17-7.53-22.66-10.9V28.5z M345.76,170.91c-21.34-26.07-26.5-44.78-22.14-51.76c4.36-6.98,23.43-10.54,56.22-2.79
			c13.26,3.13,27.51,7.76,42.34,13.67v21.84c-20.25,13.19-39.04,27.24-55.69,41.54C358.8,185.86,351.83,178.32,345.76,170.91z
			 M379.85,309.05c-32.79,7.75-51.86,4.18-56.22-2.79c-4.36-6.98,0.8-25.69,22.14-51.76c6.07-7.42,13.04-14.95,20.74-22.51
			c16.95,14.53,35.87,28.62,55.69,41.54v21.84C407.36,301.29,393.11,305.91,379.85,309.05z M496,378.94
			c0,12.49-10.16,22.66-22.66,22.66s-22.66-10.17-22.66-22.66v-64.78c7.53-3.4,15.09-7.05,22.66-10.93
			c7.56,3.88,15.13,7.53,22.66,10.93V378.94z M623.06,306.26c-4.36,6.98-23.44,10.54-56.22,2.79c-13.26-3.13-27.51-7.75-42.34-13.67
			v-21.84c19.82-12.93,38.74-27.01,55.69-41.54c7.7,7.56,14.67,15.09,20.74,22.51C622.26,280.57,627.42,299.28,623.06,306.26z"/>
		<g>
			<path class="st3" d="M59.14,496.04l-3.96,5.68c-5.9-3.7-11.93-5.54-18.08-5.54c-8.45,0-15.09,3.48-19.93,10.43
				c-4.49,6.34-6.73,14.78-6.73,25.34c0,11,2.9,19.58,8.71,25.74c4.93,5.37,11.26,8.05,19.01,8.05c6.34,0,12.36-2.07,18.08-6.2
				l3.96,5.94c-6.86,5.99-14.65,8.98-23.36,8.98c-12.06,0-21.52-4.66-28.38-13.99C2.81,552.8,0,543.29,0,531.94
				c0-12.67,3.43-23.32,10.3-31.94c6.51-8.18,14.83-12.28,24.95-12.28C44.22,487.72,52.18,490.49,59.14,496.04z"/>
			<path class="st3" d="M127.51,572.86h-8.71v-35.11c0-12.49-5.54-18.74-16.63-18.74c-2.99,0-6.07,0.77-9.24,2.31
				c-3.17,1.54-5.5,3.41-7,5.61v45.94h-8.84v-80.52l8.84-4.62v31.55c5.46-5.28,11.79-7.92,19.01-7.92
				c15.05,0,22.57,8.58,22.57,25.74V572.86z"/>
			<path class="st3" d="M196.15,545.93h-42.77c0.35,6.42,2.57,11.57,6.67,15.44c4.09,3.87,9.39,5.81,15.91,5.81
				c5.46,0,10.78-1.63,15.97-4.88l3.04,5.28c-5.81,4.58-12.8,6.86-20.99,6.86c-9.5,0-17.07-3.12-22.7-9.37
				c-5.19-5.63-7.79-12.94-7.79-21.91c0-9.33,2.77-17.11,8.32-23.36c5.02-5.63,11.22-8.45,18.61-8.45c8.89,0,15.66,3.61,20.33,10.82
				c3.61,5.63,5.41,12.58,5.41,20.86V545.93z M153.25,538.81h33.79c-0.26-6.42-1.83-11.44-4.69-15.05
				c-2.86-3.61-6.8-5.41-11.81-5.41c-4.75,0-8.73,1.89-11.95,5.68C155.38,527.81,153.6,532.73,153.25,538.81z"/>
			<path class="st3" d="M302.41,572.86h-8.84v-34.32c0-13.02-5.46-19.54-16.37-19.54c-5.9,0-11.35,2.55-16.37,7.66
				c0.88,3.08,1.32,6.51,1.32,10.3v35.9h-8.71v-34.85c0-12.67-5.33-19.01-15.97-19.01c-2.82,0-5.74,0.77-8.78,2.31
				c-3.04,1.54-5.39,3.45-7.06,5.74v45.8h-8.84v-59.93h7.39l0.79,6.2h0.4c5.54-5.19,11.92-7.79,19.14-7.79
				c8.62,0,14.65,3.21,18.08,9.64c5.81-6.42,13.07-9.64,21.78-9.64c7.21,0,12.76,2.33,16.63,7c3.61,4.4,5.41,10.61,5.41,18.61
				V572.86z"/>
			<path class="st3" d="M321.68,493.4c0-1.5,0.57-2.82,1.72-3.96c1.14-1.14,2.51-1.72,4.09-1.72s2.95,0.57,4.09,1.72
				c1.14,1.14,1.72,2.46,1.72,3.96c0,1.67-0.57,3.06-1.72,4.16c-1.14,1.1-2.51,1.65-4.09,1.65c-1.67,0-3.06-0.55-4.16-1.65
				C322.23,496.46,321.68,495.07,321.68,493.4z M331.71,512.93v59.93H323v-59.93H331.71z"/>
			<path class="st3" d="M398.24,517.69l-2.9,5.02c-4.49-2.82-9.37-4.22-14.65-4.22c-7.22,0-12.85,2.64-16.9,7.92
				c-3.52,4.58-5.28,10.3-5.28,17.16c0,7.31,2.24,13.16,6.73,17.56c4.14,4.05,9.55,6.07,16.24,6.07c5.63,0,10.6-1.63,14.92-4.88
				l2.9,5.28c-4.93,4.58-11.53,6.86-19.8,6.86c-9.68,0-17.38-3.25-23.1-9.77c-4.93-5.72-7.39-12.89-7.39-21.52
				c0-9.68,3.21-17.6,9.64-23.76c5.54-5.37,12.23-8.05,20.06-8.05C386.36,511.35,392.87,513.46,398.24,517.69z"/>
			<path class="st3" d="M459.09,572.86h-6.6l-1.32-6.47c-5.37,5.37-12.06,8.05-20.06,8.05c-6.07,0-10.91-1.69-14.52-5.08
				c-3.61-3.39-5.41-7.9-5.41-13.53c0-13.73,10.03-20.59,30.1-20.59h9.11v-0.79c0-10.47-5.1-15.71-15.31-15.71
				c-5.81,0-11.4,1.94-16.76,5.81l-2.9-4.88c6.07-5.54,13.46-8.32,22.18-8.32c6.95,0,12.28,2.16,15.97,6.47
				c3.7,4.31,5.54,10.52,5.54,18.61V572.86z M450.38,541.71h-8.05c-14.43,0-21.65,4.44-21.65,13.33c0,3.78,1.12,6.75,3.37,8.91
				c2.24,2.16,5.39,3.23,9.44,3.23c3.52,0,6.91-0.88,10.16-2.64c3.25-1.76,5.5-3.96,6.73-6.6V541.71z"/>
			<path class="st3" d="M488.26,487.72v85.14h-8.84v-80.39L488.26,487.72z"/>
			<path class="st3" d="M536.96,566l4.22-5.94c6.42,3.7,13.24,5.54,20.46,5.54c5.54,0,9.9-1.3,13.07-3.89
				c3.17-2.59,4.75-6.27,4.75-11.02c0-8.1-5.33-13.99-15.97-17.69c-9.06-3.08-15.62-6.51-19.67-10.3c-4.05-3.78-6.07-8.4-6.07-13.86
				c0-6.51,2.55-11.75,7.66-15.71c4.66-3.61,10.78-5.41,18.35-5.41c8.27,0,15.79,2.29,22.57,6.86l-4.36,5.94
				c-5.46-2.9-11.31-4.36-17.56-4.36c-5.1,0-9.15,1.1-12.14,3.3c-2.99,2.2-4.49,5.19-4.49,8.98c0,5.9,4.57,10.56,13.73,13.99
				c10.38,3.96,17.67,8.03,21.85,12.21c4.18,4.18,6.27,9.62,6.27,16.3c0,7.66-2.95,13.68-8.84,18.08
				c-4.84,3.61-10.74,5.41-17.69,5.41C554.39,574.45,545.68,571.63,536.96,566z"/>
			<path class="st3" d="M652.6,517.69l-2.9,5.02c-4.49-2.82-9.37-4.22-14.65-4.22c-7.22,0-12.85,2.64-16.9,7.92
				c-3.52,4.58-5.28,10.3-5.28,17.16c0,7.31,2.24,13.16,6.73,17.56c4.14,4.05,9.55,6.07,16.24,6.07c5.63,0,10.6-1.63,14.92-4.88
				l2.9,5.28c-4.93,4.58-11.53,6.86-19.8,6.86c-9.68,0-17.38-3.25-23.1-9.77c-4.93-5.72-7.39-12.89-7.39-21.52
				c0-9.68,3.21-17.6,9.64-23.76c5.54-5.37,12.23-8.05,20.06-8.05C640.72,511.35,647.23,513.46,652.6,517.69z"/>
			<path class="st3" d="M668.83,493.4c0-1.5,0.57-2.82,1.72-3.96c1.14-1.14,2.51-1.72,4.09-1.72s2.95,0.57,4.09,1.72
				c1.14,1.14,1.72,2.46,1.72,3.96c0,1.67-0.57,3.06-1.72,4.16c-1.14,1.1-2.51,1.65-4.09,1.65c-1.67,0-3.06-0.55-4.16-1.65
				C669.38,496.46,668.83,495.07,668.83,493.4z M678.86,512.93v59.93h-8.71v-59.93H678.86z"/>
			<path class="st3" d="M748.82,545.93h-42.77c0.35,6.42,2.57,11.57,6.67,15.44c4.09,3.87,9.39,5.81,15.91,5.81
				c5.46,0,10.78-1.63,15.97-4.88l3.04,5.28c-5.81,4.58-12.8,6.86-20.99,6.86c-9.5,0-17.07-3.12-22.7-9.37
				c-5.19-5.63-7.79-12.94-7.79-21.91c0-9.33,2.77-17.11,8.32-23.36c5.02-5.63,11.22-8.45,18.61-8.45c8.89,0,15.66,3.61,20.33,10.82
				c3.61,5.63,5.41,12.58,5.41,20.86V545.93z M705.92,538.81h33.79c-0.26-6.42-1.83-11.44-4.69-15.05
				c-2.86-3.61-6.8-5.41-11.81-5.41c-4.75,0-8.73,1.89-11.95,5.68C708.05,527.81,706.27,532.73,705.92,538.81z"/>
			<path class="st3" d="M815.88,572.86h-8.71v-35.11c0-12.49-5.46-18.74-16.37-18.74c-3.17,0-6.29,0.75-9.37,2.24
				c-3.08,1.5-5.46,3.39-7.13,5.68v45.94h-8.84v-59.93h7.39l0.79,6.34h0.4c5.19-5.28,11.7-7.92,19.54-7.92
				c14.87,0,22.31,8.58,22.31,25.74V572.86z"/>
			<path class="st3" d="M881.08,517.69l-2.9,5.02c-4.49-2.82-9.37-4.22-14.65-4.22c-7.22,0-12.85,2.64-16.9,7.92
				c-3.52,4.58-5.28,10.3-5.28,17.16c0,7.31,2.24,13.16,6.73,17.56c4.14,4.05,9.55,6.07,16.24,6.07c5.63,0,10.6-1.63,14.92-4.88
				l2.9,5.28c-4.93,4.58-11.53,6.86-19.8,6.86c-9.68,0-17.38-3.25-23.1-9.77c-4.93-5.72-7.39-12.89-7.39-21.52
				c0-9.68,3.21-17.6,9.64-23.76c5.54-5.37,12.23-8.05,20.06-8.05C869.2,511.35,875.71,513.46,881.08,517.69z"/>
			<path class="st3" d="M946.68,545.93h-42.77c0.35,6.42,2.57,11.57,6.67,15.44c4.09,3.87,9.39,5.81,15.91,5.81
				c5.46,0,10.78-1.63,15.97-4.88l3.04,5.28c-5.81,4.58-12.8,6.86-20.99,6.86c-9.5,0-17.07-3.12-22.7-9.37
				c-5.19-5.63-7.79-12.94-7.79-21.91c0-9.33,2.77-17.11,8.32-23.36c5.02-5.63,11.22-8.45,18.61-8.45c8.89,0,15.66,3.61,20.33,10.82
				c3.61,5.63,5.41,12.58,5.41,20.86V545.93z M903.78,538.81h33.79c-0.26-6.42-1.83-11.44-4.69-15.05
				c-2.86-3.61-6.8-5.41-11.81-5.41c-4.75,0-8.73,1.89-11.95,5.68C905.92,527.81,904.14,532.73,903.78,538.81z"/>
			<path class="st3" d="M134.97,640.57h8.58v-8.71c0-5.19,1.27-9.24,3.83-12.14c2.55-2.9,6.16-4.36,10.82-4.36
				c4.75,0,9.28,1.5,13.6,4.49l-3.17,4.88c-2.9-1.5-5.76-2.24-8.58-2.24c-5.19,0-7.79,3.26-7.79,9.77v8.32h15.05v7.13h-15.05v52.8
				h-8.71v-52.8h-8.58V640.57z"/>
			<path class="st3" d="M235.16,670.67c0,9.5-2.99,17.29-8.98,23.36c-5.37,5.37-11.97,8.05-19.8,8.05c-9.06,0-16.37-3.43-21.91-10.3
				c-4.67-5.81-7-12.85-7-21.12c0-9.68,2.9-17.51,8.71-23.5c5.28-5.46,12.01-8.18,20.2-8.18c9.24,0,16.59,3.48,22.04,10.43
				C232.91,655.22,235.16,662.31,235.16,670.67z M186.98,670.67c0,7.66,1.98,13.73,5.94,18.22c3.52,3.96,7.96,5.94,13.33,5.94
				c5.81,0,10.49-2.22,14.06-6.67c3.56-4.44,5.35-10.27,5.35-17.49c0-7.57-1.94-13.64-5.81-18.22c-3.52-4.22-8.01-6.34-13.46-6.34
				c-5.81,0-10.49,2.27-14.06,6.8C188.76,657.45,186.98,663.37,186.98,670.67z"/>
			<path class="st3" d="M290.86,645.72l-7.26,5.02c-2.99-2.64-6.2-3.96-9.64-3.96c-5.02,0-9.46,2.6-13.33,7.79v45.94h-8.84v-59.93
				h7.52l0.79,6.34h0.26c5.19-5.28,10.51-7.92,15.97-7.92C282.76,638.99,287.6,641.23,290.86,645.72z"/>
			<path class="st3" d="M331.64,693.64l4.22-5.94c6.42,3.7,13.24,5.54,20.46,5.54c5.54,0,9.9-1.3,13.07-3.89
				c3.17-2.59,4.75-6.27,4.75-11.02c0-8.1-5.33-13.99-15.97-17.69c-9.06-3.08-15.62-6.51-19.67-10.3c-4.05-3.78-6.07-8.4-6.07-13.86
				c0-6.51,2.55-11.75,7.66-15.71c4.66-3.61,10.78-5.41,18.35-5.41c8.27,0,15.79,2.29,22.57,6.86l-4.36,5.94
				c-5.46-2.9-11.31-4.36-17.56-4.36c-5.1,0-9.15,1.1-12.14,3.3c-2.99,2.2-4.49,5.19-4.49,8.98c0,5.9,4.57,10.56,13.73,13.99
				c10.38,3.96,17.67,8.03,21.85,12.21c4.18,4.18,6.27,9.62,6.27,16.3c0,7.66-2.95,13.68-8.84,18.08
				c-4.84,3.61-10.74,5.41-17.69,5.41C349.07,702.08,340.36,699.27,331.64,693.64z"/>
			<path class="st3" d="M415.2,647.83l-0.13,37.49c0,6.42,2.59,9.64,7.79,9.64c2.9,0,5.76-0.75,8.58-2.24l3.17,4.88
				c-4.31,2.99-8.84,4.49-13.6,4.49c-4.67,0-8.27-1.45-10.82-4.36c-2.55-2.9-3.83-6.95-3.83-12.14v-37.75h-9.11v-7.26h9.24V627.5
				l8.71-4.49v17.56h18.35v7.26H415.2z"/>
			<path class="st3" d="M498.75,640.57v59.93h-6.86l-0.79-6.86l-0.4,0.13c-5.37,5.54-11.88,8.32-19.54,8.32
				c-6.42,0-11.48-2.26-15.18-6.8c-3.7-4.53-5.54-10.8-5.54-18.81v-35.9h8.84v34.32c0,12.94,4.84,19.4,14.52,19.4
				c2.99,0,6.01-0.75,9.04-2.24c3.04-1.5,5.43-3.43,7.19-5.81v-45.67H498.75z"/>
			<path class="st3" d="M562.51,700.5l-1.45-6.34c-4.22,5.28-10.34,7.92-18.35,7.92c-8.71,0-15.62-3.25-20.72-9.77
				c-4.4-5.63-6.6-12.63-6.6-20.99c0-10.56,3.08-18.83,9.24-24.82c5.1-5.02,11.4-7.52,18.88-7.52c7.04,0,12.67,2.33,16.9,7v-25.61
				l8.71-4.88v85.01H562.51z M560.4,684.53v-28.64c-1.14-2.73-3.21-5.04-6.2-6.93c-2.99-1.89-6.16-2.84-9.5-2.84
				c-5.81,0-10.56,2.27-14.26,6.8c-3.7,4.53-5.54,10.36-5.54,17.49c0,8.1,2.02,14.39,6.07,18.88c3.52,3.7,7.92,5.54,13.2,5.54
				c3.52,0,6.75-0.94,9.7-2.84C556.81,690.1,558.99,687.61,560.4,684.53z"/>
			<path class="st3" d="M638.41,673.57h-42.77c0.35,6.42,2.57,11.57,6.67,15.44c4.09,3.87,9.39,5.81,15.91,5.81
				c5.46,0,10.78-1.63,15.97-4.88l3.04,5.28c-5.81,4.58-12.8,6.86-20.99,6.86c-9.5,0-17.07-3.12-22.7-9.37
				c-5.19-5.63-7.79-12.94-7.79-21.91c0-9.33,2.77-17.11,8.32-23.36c5.02-5.63,11.22-8.45,18.61-8.45c8.89,0,15.66,3.61,20.33,10.82
				c3.61,5.63,5.41,12.58,5.41,20.86V673.57z M595.51,666.44h33.79c-0.26-6.42-1.83-11.44-4.69-15.05
				c-2.86-3.61-6.8-5.41-11.81-5.41c-4.75,0-8.73,1.89-11.95,5.68C597.64,655.45,595.86,660.37,595.51,666.44z"/>
			<path class="st3" d="M705.46,700.5h-8.71v-35.11c0-12.49-5.46-18.74-16.37-18.74c-3.17,0-6.29,0.75-9.37,2.24
				c-3.08,1.5-5.46,3.39-7.13,5.68v45.94h-8.84v-59.93h7.39l0.79,6.34h0.4c5.19-5.28,11.7-7.92,19.54-7.92
				c14.87,0,22.31,8.58,22.31,25.74V700.5z"/>
			<path class="st3" d="M737.27,647.83l-0.13,37.49c0,6.42,2.59,9.64,7.79,9.64c2.9,0,5.76-0.75,8.58-2.24l3.17,4.88
				c-4.31,2.99-8.84,4.49-13.6,4.49c-4.67,0-8.27-1.45-10.82-4.36c-2.55-2.9-3.83-6.95-3.83-12.14v-37.75h-9.11v-7.26h9.24V627.5
				l8.71-4.49v17.56h18.35v7.26H737.27z"/>
			<path class="st3" d="M803.93,649.55c-4.4-2.29-9.2-3.43-14.39-3.43c-3.52,0-6.27,0.77-8.25,2.31c-1.98,1.54-2.97,3.63-2.97,6.27
				c0,2.82,0.9,5,2.71,6.53c1.8,1.54,5.26,3.06,10.36,4.55c7.21,2.2,12.23,4.67,15.05,7.39c2.82,2.73,4.22,6.56,4.22,11.48
				c0,5.19-1.96,9.39-5.87,12.61c-3.92,3.21-8.96,4.82-15.11,4.82c-8.1,0-15.14-2.2-21.12-6.6c0.26-0.44,0.7-1.19,1.32-2.24
				c0.61-1.14,1.14-2.02,1.58-2.64c5.1,2.82,10.6,4.22,16.5,4.22c9.24,0,13.86-3.48,13.86-10.43c0-2.81-0.99-5.02-2.97-6.6
				s-5.66-3.08-11.02-4.49c-12.5-3.52-18.74-9.64-18.74-18.35c0-4.66,1.83-8.49,5.48-11.48c3.65-2.99,8.34-4.49,14.06-4.49
				c6.78,0,12.85,1.89,18.22,5.68L803.93,649.55z"/>
		</g>
	</g>
</g>
<g id="Capa_2">
</g>
</svg>
